<svg xmlns="http://www.w3.org/2000/svg" viewBox="0 0 105.74 85.93"><defs><style>.cls-1{fill:#fff;}</style></defs><title>アセット 1</title><g id="レイヤー_2" data-name="レイヤー 2"><g id="Capa_1" data-name="Capa 1"><path class="cls-1" d="M105.74,10.17a43.28,43.28,0,0,1-12.46,3.41,21.75,21.75,0,0,0,9.54-12A43.43,43.43,0,0,1,89,6.85a21.71,21.71,0,0,0-37,19.79A61.58,61.58,0,0,1,7.36,4a21.72,21.72,0,0,0,6.71,29,21.54,21.54,0,0,1-9.83-2.72c0,.09,0,.18,0,.28a21.71,21.71,0,0,0,17.4,21.27,21.78,21.78,0,0,1-9.8.38A21.72,21.72,0,0,0,32.12,67.2,43.53,43.53,0,0,1,5.17,76.49,43.68,43.68,0,0,1,0,76.19a61.36,61.36,0,0,0,33.25,9.75C73.16,85.93,95,52.88,95,24.21c0-.94,0-1.88-.06-2.81a44,44,0,0,0,10.83-11.23Z"/></g></g></svg>