<svg xmlns="http://www.w3.org/2000/svg" viewBox="0 0 176.98 180.68"><defs><style>.cls-1{fill:#1da1f2;}.cls-2{fill:#ea5b91;}</style></defs><title>アセット 5</title><g id="レイヤー_2" data-name="レイヤー 2"><g id="Capa_1" data-name="Capa 1"><path class="cls-1" d="M129.87,22.74l-51,49.08L27.76,22.74a4.62,4.62,0,0,0-6.92.48,5.7,5.7,0,0,0,.44,7.55L75.58,83a4.6,4.6,0,0,0,6.48,0l54.29-52.2a5.7,5.7,0,0,0,.44-7.55A4.63,4.63,0,0,0,129.87,22.74Z"/><path class="cls-1" d="M142.92,0H14.71C6.6,0,0,7.2,0,16.05V101C0,109.82,6.6,117,14.71,117H142.92c8.11,0,14.71-7.2,14.71-16.05V16.05C157.63,7.2,151,0,142.92,0Zm4.9,101a5.15,5.15,0,0,1-4.9,5.35H14.71A5.15,5.15,0,0,1,9.81,101V16.05a5.15,5.15,0,0,1,4.9-5.35H142.92a5.15,5.15,0,0,1,4.9,5.35Z"/><path class="cls-2" d="M24.29,117.19q6.7-13,21.7-13,14.71,1.69,20.68,14.36t5.84,23.68A55.23,55.23,0,0,1,66.15,167q-6.21,12.11-21.08,12.61-15.27-.74-21.52-12.79a52.7,52.7,0,0,1-6.09-25.26Q17.6,130.18,24.29,117.19Zm7.47,42.35a15.54,15.54,0,0,0,13.44,9.66q9.64-.85,13.19-9.48A47.41,47.41,0,0,0,62,142.15a46,46,0,0,0-3.31-16.42,16.41,16.41,0,0,0-12.87-11q-9.23.44-13.54,10t-4.4,17A41.46,41.46,0,0,0,31.76,159.53Z"/><path class="cls-2" d="M136.15,172.09q2.69,4.71-1.46,7.28-4.44,2.42-7-1.32L101,141.38l-.42,34.27q-.06,5.23-5.29,5-5.09.07-5.17-5.29l1.09-90.14q.2-5.23,5.43-5.16,5.08.34,5,5.15l-.49,40.32,28.57-17.41q4-2.56,7.13,1.88,3.38,4.58-1.33,7.42L108.81,133.9Z"/><path class="cls-2" d="M164.29,159.51q3.68.66,2.72,6.73-1.1,5.8-4.85,5.27-3.82-.8-2.79-6.67T164.29,159.51Zm10.66-50.25a2.3,2.3,0,0,1,1.88,3.24L169.19,150a2.31,2.31,0,0,1-3,2q-2.45-.92-2-3l7.7-37.64Q172.29,108.54,174.95,109.25Z"/></g></g></svg>