<?xml version="1.0" encoding="utf-8"?>
<!-- Generator: Adobe Illustrator 21.0.0, SVG Export Plug-In . SVG Version: 6.00 Build 0)  -->
<svg version="1.1" id="Capa_1" xmlns="http://www.w3.org/2000/svg" xmlns:xlink="http://www.w3.org/1999/xlink" x="0px" y="0px"
	 viewBox="0 0 512 512" style="enable-background:new 0 0 512 512;" xml:space="preserve">
<style type="text/css">
	.st0{fill:#A5AAB0;}
</style>
<path class="st0" d="M466.9,511.9H306.3V319.6H205.7v192.4H45.1V319.6c-18.5,0-34.5-10.6-41.6-27.8c-7.1-17.1-3.4-35.9,9.8-49
	L256,0.1l242.7,242.7c13.1,13.1,16.8,31.9,9.8,49c-7.1,17.1-23,27.8-41.6,27.8L466.9,511.9L466.9,511.9z M336.3,482h100.6V289.6h30
	c9.3,0,13-7.1,13.9-9.3c0.9-2.2,3.3-9.8-3.3-16.3L256,42.5L34.5,264c-6.6,6.6-4.2,14.2-3.3,16.3c0.9,2.2,4.6,9.3,13.9,9.3h30V482
	h100.6V289.6h160.6L336.3,482L336.3,482z"/>
</svg>
